<?xml version="1.0" encoding="UTF-8" standalone="no"?>
<!DOCTYPE svg PUBLIC "-//W3C//DTD SVG 1.1//EN"
 "http://www.w3.org/Graphics/SVG/1.1/DTD/svg11.dtd">
<!-- Generated by graphviz version 2.38.0 (20140413.2041)
 -->
<!-- Title: %3 Pages: 1 -->
<svg width="968pt" height="479pt"
 viewBox="0.00 0.00 968.10 479.00" xmlns="http://www.w3.org/2000/svg" xmlns:xlink="http://www.w3.org/1999/xlink">
<g id="graph0" class="graph" transform="scale(1 1) rotate(0) translate(4 475)">
<title>%3</title>
<polygon fill="#3f3f3f" stroke="none" points="-4,4 -4,-475 964.099,-475 964.099,4 -4,4"/>
<text text-anchor="middle" x="480.049" y="-9.2" font-family="Times,serif" font-size="16.00" fill="white">Network Map</text>
<!-- R2 -->
<g id="node1" class="node"><title>R2</title>
<polygon fill="#006699" stroke="#006699" points="564.099,-99 488.099,-99 488.099,-26 564.099,-26 564.099,-99"/>
<text text-anchor="middle" x="526.099" y="-58.8" font-family="Helvetica,sans-Serif" font-size="14.00" fill="white">R2</text>
</g>
<!-- R6 -->
<g id="node2" class="node"><title>R6</title>
<polygon fill="#006699" stroke="#006699" points="264.099,-223 188.099,-223 188.099,-150 264.099,-150 264.099,-223"/>
<text text-anchor="middle" x="226.099" y="-182.8" font-family="Helvetica,sans-Serif" font-size="14.00" fill="white">R6</text>
</g>
<!-- R2&#45;&#45;R6 -->
<g id="edge4" class="edge"><title>R2&#45;&#45;R6</title>
<path fill="none" stroke="green" stroke-dasharray="5,2" d="M488.019,-64.3083C413.766,-66.7739 253.927,-76.7439 220.099,-117 212.572,-125.957 211.687,-138.094 213.462,-149.665"/>
<text text-anchor="middle" x="270.099" y="-120.8" font-family="Courier,monospace" font-size="14.00" fill="white"> &#160;&#160;&#160;&#160;&#160;&#160;&#160;&#160;&#160;&#160;&#160;</text>
<text text-anchor="middle" x="184.462" y="-138.465" font-family="Courier,monospace" font-size="14.00" fill="white">Eth 0/1</text>
<text text-anchor="middle" x="459.019" y="-53.1083" font-family="Courier,monospace" font-size="14.00" fill="white">Eth 0/2</text>
</g>
<!-- SW1 -->
<g id="node5" class="node"><title>SW1</title>
<polygon fill="#006699" stroke="#006699" points="476.599,-223 387.599,-223 387.599,-150 476.599,-150 476.599,-223"/>
<text text-anchor="middle" x="432.099" y="-182.8" font-family="Helvetica,sans-Serif" font-size="14.00" fill="white">SW1</text>
</g>
<!-- R2&#45;&#45;SW1 -->
<g id="edge2" class="edge"><title>R2&#45;&#45;SW1</title>
<path fill="none" stroke="green" stroke-dasharray="5,2" d="M488.051,-93.4341C480.226,-100.64 472.447,-108.678 466.099,-117 458.529,-126.923 451.935,-138.794 446.619,-149.845"/>
<text text-anchor="middle" x="516.099" y="-120.8" font-family="Courier,monospace" font-size="14.00" fill="white"> &#160;&#160;&#160;&#160;&#160;&#160;&#160;&#160;&#160;&#160;&#160;</text>
<text text-anchor="middle" x="417.619" y="-138.645" font-family="Courier,monospace" font-size="14.00" fill="white">Eth 0/2</text>
<text text-anchor="middle" x="459.051" y="-82.2341" font-family="Courier,monospace" font-size="14.00" fill="white">Eth 0/0</text>
</g>
<!-- R5 -->
<g id="node6" class="node"><title>R5</title>
<polygon fill="#006699" stroke="#006699" points="732.099,-471 656.099,-471 656.099,-398 732.099,-398 732.099,-471"/>
<text text-anchor="middle" x="694.099" y="-430.8" font-family="Helvetica,sans-Serif" font-size="14.00" fill="white">R5</text>
</g>
<!-- R2&#45;&#45;R5 -->
<g id="edge3" class="edge"><title>R2&#45;&#45;R5</title>
<path fill="none" stroke="green" stroke-dasharray="5,2" d="M564.393,-68.8987C597.083,-75.3026 643.526,-88.8935 674.099,-117 718.751,-158.051 718.132,-181.747 731.099,-241 738.268,-273.762 780.849,-201.493 727.099,-380 725.274,-386.061 722.582,-392.121 719.51,-397.871"/>
<text text-anchor="middle" x="801.099" y="-244.8" font-family="Courier,monospace" font-size="14.00" fill="white"> &#160;&#160;&#160;&#160;&#160;&#160;&#160;&#160;&#160;&#160;&#160;</text>
<text text-anchor="middle" x="690.51" y="-386.671" font-family="Courier,monospace" font-size="14.00" fill="white">Eth 0/0</text>
<text text-anchor="middle" x="593.393" y="-57.6987" font-family="Courier,monospace" font-size="14.00" fill="white">Eth 0/1</text>
</g>
<!-- R6&#45;&#45;R2 -->
<g id="edge10" class="edge"><title>R6&#45;&#45;R2</title>
<path fill="none" stroke="green" stroke-dasharray="5,2" d="M264.324,-162.345C289.048,-148.012 322.26,-129.94 353.099,-117 398.178,-98.0852 452.323,-82.4095 487.888,-73.0167"/>
<text text-anchor="middle" x="403.099" y="-120.8" font-family="Courier,monospace" font-size="14.00" fill="white"> &#160;&#160;&#160;&#160;&#160;&#160;&#160;&#160;&#160;&#160;&#160;</text>
<text text-anchor="middle" x="458.888" y="-61.8167" font-family="Courier,monospace" font-size="14.00" fill="white">Eth 0/2</text>
<text text-anchor="middle" x="293.324" y="-151.145" font-family="Courier,monospace" font-size="14.00" fill="white">Eth 0/1</text>
</g>
<!-- R3 -->
<g id="node3" class="node"><title>R3</title>
<polygon fill="#006699" stroke="#006699" points="130.099,-347 54.0988,-347 54.0988,-274 130.099,-274 130.099,-347"/>
<text text-anchor="middle" x="92.0988" y="-306.8" font-family="Helvetica,sans-Serif" font-size="14.00" fill="white">R3</text>
</g>
<!-- R3&#45;&#45;SW1 -->
<g id="edge5" class="edge"><title>R3&#45;&#45;SW1</title>
<path fill="none" stroke="green" stroke-dasharray="5,2" d="M130.484,-275.788C146.68,-263.151 166.343,-249.749 186.099,-241 222.203,-225.012 234.496,-231.302 273.099,-223 311.811,-214.674 355.734,-204.838 387.591,-197.633"/>
<text text-anchor="middle" x="236.099" y="-244.8" font-family="Courier,monospace" font-size="14.00" fill="white"> &#160;&#160;&#160;&#160;&#160;&#160;&#160;&#160;&#160;&#160;&#160;</text>
<text text-anchor="middle" x="358.591" y="-186.433" font-family="Courier,monospace" font-size="14.00" fill="white">Eth 0/3</text>
<text text-anchor="middle" x="159.484" y="-264.588" font-family="Courier,monospace" font-size="14.00" fill="white">Eth 0/0</text>
</g>
<!-- R4 -->
<g id="node4" class="node"><title>R4</title>
<polygon fill="#006699" stroke="#006699" points="453.099,-347 377.099,-347 377.099,-274 453.099,-274 453.099,-347"/>
<text text-anchor="middle" x="415.099" y="-306.8" font-family="Helvetica,sans-Serif" font-size="14.00" fill="white">R4</text>
</g>
<!-- R4&#45;&#45;SW1 -->
<g id="edge6" class="edge"><title>R4&#45;&#45;SW1</title>
<path fill="none" stroke="green" stroke-dasharray="5,2" d="M400.677,-273.768C398.169,-263.163 397.181,-251.561 400.099,-241 401.77,-234.949 404.327,-228.894 407.282,-223.147"/>
<text text-anchor="middle" x="450.099" y="-244.8" font-family="Courier,monospace" font-size="14.00" fill="white"> &#160;&#160;&#160;&#160;&#160;&#160;&#160;&#160;&#160;&#160;&#160;</text>
<text text-anchor="middle" x="378.282" y="-226.947" font-family="Courier,monospace" font-size="14.00" fill="white">Eth 0/4</text>
<text text-anchor="middle" x="371.677" y="-262.568" font-family="Courier,monospace" font-size="14.00" fill="white">Eth 0/0</text>
</g>
<!-- R4&#45;&#45;R5 -->
<g id="edge7" class="edge"><title>R4&#45;&#45;R5</title>
<path fill="none" stroke="green" stroke-dasharray="5,2" d="M451.52,-347.231C465.218,-359.069 481.511,-371.402 498.099,-380 549.3,-406.54 615.048,-421.002 655.877,-427.988"/>
<text text-anchor="middle" x="548.099" y="-368.8" font-family="Courier,monospace" font-size="14.00" fill="white"> &#160;&#160;&#160;&#160;&#160;&#160;&#160;&#160;&#160;&#160;&#160;</text>
<text text-anchor="middle" x="626.877" y="-416.788" font-family="Courier,monospace" font-size="14.00" fill="white">Eth 0/1</text>
<text text-anchor="middle" x="422.52" y="-351.031" font-family="Courier,monospace" font-size="14.00" fill="white">Eth 0/1</text>
</g>
<!-- SW1&#45;&#45;R2 -->
<g id="edge12" class="edge"><title>SW1&#45;&#45;R2</title>
<path fill="none" stroke="green" stroke-dasharray="5,2" d="M476.607,-180.577C507.376,-174.595 546.218,-161.345 566.099,-132 573.128,-121.625 570.105,-109.97 563.289,-99.2569"/>
<text text-anchor="middle" x="620.099" y="-120.8" font-family="Courier,monospace" font-size="14.00" fill="white"> &#160;&#160;&#160;&#160;&#160;&#160;&#160;&#160;&#160;&#160;&#160;</text>
<text text-anchor="middle" x="534.289" y="-103.057" font-family="Courier,monospace" font-size="14.00" fill="white">Eth 0/0</text>
<text text-anchor="middle" x="505.607" y="-169.377" font-family="Courier,monospace" font-size="14.00" fill="white">Eth 0/2</text>
</g>
<!-- SW1&#45;&#45;R3 -->
<g id="edge13" class="edge"><title>SW1&#45;&#45;R3</title>
<path fill="none" stroke="green" stroke-dasharray="5,2" d="M387.517,-199.167C355.812,-207.042 312.103,-217.049 273.099,-223 249.291,-226.632 73.4057,-223.278 57.0988,-241 48.4178,-250.434 51.1695,-262.426 58,-273.73"/>
<text text-anchor="middle" x="107.099" y="-244.8" font-family="Courier,monospace" font-size="14.00" fill="white"> &#160;&#160;&#160;&#160;&#160;&#160;&#160;&#160;&#160;&#160;&#160;</text>
<text text-anchor="middle" x="29" y="-262.53" font-family="Courier,monospace" font-size="14.00" fill="white">Eth 0/0</text>
<text text-anchor="middle" x="358.517" y="-202.967" font-family="Courier,monospace" font-size="14.00" fill="white">Eth 0/3</text>
</g>
<!-- SW1&#45;&#45;R4 -->
<g id="edge14" class="edge"><title>SW1&#45;&#45;R4</title>
<path fill="none" stroke="green" stroke-dasharray="5,2" d="M387.291,-192.006C355.746,-197.781 315.621,-210.954 295.099,-241 271.895,-274.972 333.636,-294.169 376.923,-303.141"/>
<text text-anchor="middle" x="345.099" y="-244.8" font-family="Courier,monospace" font-size="14.00" fill="white"> &#160;&#160;&#160;&#160;&#160;&#160;&#160;&#160;&#160;&#160;&#160;</text>
<text text-anchor="middle" x="347.923" y="-291.941" font-family="Courier,monospace" font-size="14.00" fill="white">Eth 0/0</text>
<text text-anchor="middle" x="358.291" y="-180.806" font-family="Courier,monospace" font-size="14.00" fill="white">Eth 0/4</text>
</g>
<!-- R1 -->
<g id="node7" class="node"><title>R1</title>
<polygon fill="#006699" stroke="#006699" points="621.099,-347 545.099,-347 545.099,-274 621.099,-274 621.099,-347"/>
<text text-anchor="middle" x="583.099" y="-306.8" font-family="Helvetica,sans-Serif" font-size="14.00" fill="white">R1</text>
</g>
<!-- SW1&#45;&#45;R1 -->
<g id="edge11" class="edge"><title>SW1&#45;&#45;R1</title>
<path fill="none" stroke="green" stroke-dasharray="5,2" d="M476.842,-222.461C484.62,-228.608 492.613,-234.968 500.099,-241 514.792,-252.84 530.811,-266 544.822,-277.596"/>
<text text-anchor="middle" x="569.099" y="-244.8" font-family="Courier,monospace" font-size="14.00" fill="white"> &#160;&#160;&#160;&#160;&#160;&#160;&#160;&#160;&#160;&#160;&#160;</text>
<text text-anchor="middle" x="515.822" y="-266.396" font-family="Courier,monospace" font-size="14.00" fill="white">Eth 0/0</text>
<text text-anchor="middle" x="447.842" y="-226.261" font-family="Courier,monospace" font-size="14.00" fill="white">Eth 0/1</text>
</g>
<!-- R5&#45;&#45;R2 -->
<g id="edge8" class="edge"><title>R5&#45;&#45;R2</title>
<path fill="none" stroke="green" stroke-dasharray="5,2" d="M732.568,-413.993C790.697,-381.675 890.574,-313.375 855.099,-241 799.54,-127.652 638.492,-84.0791 564.319,-69.6852"/>
<text text-anchor="middle" x="910.099" y="-244.8" font-family="Courier,monospace" font-size="14.00" fill="white"> &#160;&#160;&#160;&#160;&#160;&#160;&#160;&#160;&#160;&#160;&#160;</text>
<text text-anchor="middle" x="593.319" y="-73.4852" font-family="Courier,monospace" font-size="14.00" fill="white">Eth 0/1</text>
<text text-anchor="middle" x="761.568" y="-402.793" font-family="Courier,monospace" font-size="14.00" fill="white">Eth 0/0</text>
</g>
<!-- R5&#45;&#45;R4 -->
<g id="edge9" class="edge"><title>R5&#45;&#45;R4</title>
<path fill="none" stroke="green" stroke-dasharray="5,2" d="M655.818,-401.655C638.942,-388.848 618.367,-374.82 598.099,-365 572.276,-352.49 563.643,-355.039 536.099,-347 508.358,-338.904 477.055,-329.718 453.238,-322.72"/>
<text text-anchor="middle" x="673.099" y="-368.8" font-family="Courier,monospace" font-size="14.00" fill="white"> &#160;&#160;&#160;&#160;&#160;&#160;&#160;&#160;&#160;&#160;&#160;</text>
<text text-anchor="middle" x="482.238" y="-311.52" font-family="Courier,monospace" font-size="14.00" fill="white">Eth 0/1</text>
<text text-anchor="middle" x="626.818" y="-390.455" font-family="Courier,monospace" font-size="14.00" fill="white">Eth 0/1</text>
</g>
<!-- R1&#45;&#45;SW1 -->
<g id="edge1" class="edge"><title>R1&#45;&#45;SW1</title>
<path fill="none" stroke="green" stroke-dasharray="5,2" d="M620.51,-273.964C627.675,-263.035 630.838,-251.205 623.099,-241 605.464,-217.746 527.449,-201.832 476.742,-193.732"/>
<text text-anchor="middle" x="677.099" y="-244.8" font-family="Courier,monospace" font-size="14.00" fill="white"> &#160;&#160;&#160;&#160;&#160;&#160;&#160;&#160;&#160;&#160;&#160;</text>
<text text-anchor="middle" x="505.742" y="-197.532" font-family="Courier,monospace" font-size="14.00" fill="white">Eth 0/1</text>
<text text-anchor="middle" x="591.51" y="-262.764" font-family="Courier,monospace" font-size="14.00" fill="white">Eth 0/0</text>
</g>
</g>
</svg>
