<?xml version="1.0" encoding="UTF-8" standalone="no"?>
<!DOCTYPE svg PUBLIC "-//W3C//DTD SVG 1.1//EN"
 "http://www.w3.org/Graphics/SVG/1.1/DTD/svg11.dtd">
<!-- Generated by graphviz version 2.38.0 (20140413.2041)
 -->
<!-- Title: %3 Pages: 1 -->
<svg width="849pt" height="355pt"
 viewBox="0.00 0.00 848.64 355.00" xmlns="http://www.w3.org/2000/svg" xmlns:xlink="http://www.w3.org/1999/xlink">
<g id="graph0" class="graph" transform="scale(1 1) rotate(0) translate(4 351)">
<title>%3</title>
<polygon fill="#333333" stroke="none" points="-4,4 -4,-351 844.637,-351 844.637,4 -4,4"/>
<text text-anchor="middle" x="420.319" y="-9.2" font-family="Times,serif" font-size="16.00" fill="white">Network Map</text>
<!-- R6 -->
<g id="node1" class="node"><title>R6</title>
<polygon fill="#006699" stroke="#006699" points="312.137,-223 235.137,-223 235.137,-150 312.137,-150 312.137,-223"/>
<text text-anchor="middle" x="273.637" y="-182.8" font-family="Helvetica,sans-Serif" font-size="14.00" fill="white">R6</text>
</g>
<!-- R1 -->
<g id="node2" class="node"><title>R1</title>
<polygon fill="#006699" stroke="#006699" points="127.137,-223 50.1372,-223 50.1372,-150 127.137,-150 127.137,-223"/>
<text text-anchor="middle" x="88.6372" y="-182.8" font-family="Helvetica,sans-Serif" font-size="14.00" fill="white">R1</text>
</g>
<!-- SW1 -->
<g id="node4" class="node"><title>SW1</title>
<polygon fill="#006699" stroke="#006699" points="442.637,-99 350.637,-99 350.637,-26 442.637,-26 442.637,-99"/>
<text text-anchor="middle" x="396.637" y="-58.8" font-family="Helvetica,sans-Serif" font-size="14.00" fill="white">SW1</text>
</g>
<!-- R1&#45;&#45;SW1 -->
<g id="edge5" class="edge"><title>R1&#45;&#45;SW1</title>
<path fill="none" stroke="green" stroke-dasharray="5,2" d="M127.486,-149.951C142.288,-137.987 159.886,-125.526 177.637,-117 233.733,-90.056 304.628,-75.9435 350.3,-69.1172"/>
<text text-anchor="middle" x="227.637" y="-120.8" font-family="Courier,monospace" font-size="14.00" fill="white"> &#160;&#160;&#160;&#160;&#160;&#160;&#160;&#160;&#160;&#160;&#160;</text>
<text text-anchor="middle" x="325.3" y="-57.9172" font-family="Courier,monospace" font-size="14.00" fill="white">Eth0/1</text>
<text text-anchor="middle" x="102.486" y="-138.751" font-family="Courier,monospace" font-size="14.00" fill="white">Eth0/0</text>
</g>
<!-- R5 -->
<g id="node3" class="node"><title>R5</title>
<polygon fill="#006699" stroke="#006699" points="435.137,-347 358.137,-347 358.137,-274 435.137,-274 435.137,-347"/>
<text text-anchor="middle" x="396.637" y="-306.8" font-family="Helvetica,sans-Serif" font-size="14.00" fill="white">R5</text>
</g>
<!-- SW1&#45;&#45;R6 -->
<g id="edge4" class="edge"><title>SW1&#45;&#45;R6</title>
<path fill="none" stroke="green" stroke-dasharray="5,2" d="M350.391,-76.5047C328.946,-84.7863 304.888,-97.6833 289.637,-117 282.297,-126.298 278.222,-138.384 275.992,-149.811"/>
<text text-anchor="middle" x="339.637" y="-120.8" font-family="Courier,monospace" font-size="14.00" fill="white"> &#160;&#160;&#160;&#160;&#160;&#160;&#160;&#160;&#160;&#160;&#160;</text>
<text text-anchor="middle" x="250.992" y="-138.611" font-family="Courier,monospace" font-size="14.00" fill="white">Eth0/1</text>
<text text-anchor="middle" x="325.391" y="-80.3047" font-family="Courier,monospace" font-size="14.00" fill="white">Eth0/5</text>
</g>
<!-- SW1&#45;&#45;R1 -->
<g id="edge1" class="edge"><title>SW1&#45;&#45;R1</title>
<path fill="none" stroke="green" stroke-dasharray="5,2" d="M350.583,-63.0575C261.291,-63.2879 69.7683,-69.4569 28.6372,-117 15.0872,-132.662 31.1162,-150.232 50,-163.656"/>
<text text-anchor="middle" x="78.6372" y="-120.8" font-family="Courier,monospace" font-size="14.00" fill="white"> &#160;&#160;&#160;&#160;&#160;&#160;&#160;&#160;&#160;&#160;&#160;</text>
<text text-anchor="middle" x="25" y="-152.456" font-family="Courier,monospace" font-size="14.00" fill="white">Eth0/0</text>
<text text-anchor="middle" x="325.583" y="-51.8575" font-family="Courier,monospace" font-size="14.00" fill="white">Eth0/1</text>
</g>
<!-- R3 -->
<g id="node7" class="node"><title>R3</title>
<polygon fill="#006699" stroke="#006699" points="497.137,-223 420.137,-223 420.137,-150 497.137,-150 497.137,-223"/>
<text text-anchor="middle" x="458.637" y="-182.8" font-family="Helvetica,sans-Serif" font-size="14.00" fill="white">R3</text>
</g>
<!-- SW1&#45;&#45;R3 -->
<g id="edge3" class="edge"><title>SW1&#45;&#45;R3</title>
<path fill="none" stroke="green" stroke-dasharray="5,2" d="M391.696,-99.2348C391.599,-110.172 392.999,-121.958 397.637,-132 402.658,-142.87 411.07,-152.42 420.067,-160.327"/>
<text text-anchor="middle" x="447.637" y="-120.8" font-family="Courier,monospace" font-size="14.00" fill="white"> &#160;&#160;&#160;&#160;&#160;&#160;&#160;&#160;&#160;&#160;&#160;</text>
<text text-anchor="middle" x="395.067" y="-149.127" font-family="Courier,monospace" font-size="14.00" fill="white">Eth0/0</text>
<text text-anchor="middle" x="366.696" y="-103.035" font-family="Courier,monospace" font-size="14.00" fill="white">Eth0/3</text>
</g>
<!-- R2 -->
<g id="node8" class="node"><title>R2</title>
<polygon fill="#006699" stroke="#006699" points="742.137,-223 665.137,-223 665.137,-150 742.137,-150 742.137,-223"/>
<text text-anchor="middle" x="703.637" y="-182.8" font-family="Helvetica,sans-Serif" font-size="14.00" fill="white">R2</text>
</g>
<!-- SW1&#45;&#45;R2 -->
<g id="edge2" class="edge"><title>SW1&#45;&#45;R2</title>
<path fill="none" stroke="green" stroke-dasharray="5,2" d="M442.67,-70.3817C486.118,-77.9978 552.365,-92.5474 605.637,-117 626.578,-126.612 647.784,-140.767 665.087,-153.718"/>
<text text-anchor="middle" x="681.637" y="-120.8" font-family="Courier,monospace" font-size="14.00" fill="white"> &#160;&#160;&#160;&#160;&#160;&#160;&#160;&#160;&#160;&#160;&#160;</text>
<text text-anchor="middle" x="640.087" y="-142.518" font-family="Courier,monospace" font-size="14.00" fill="white">Eth0/0</text>
<text text-anchor="middle" x="467.67" y="-59.1817" font-family="Courier,monospace" font-size="14.00" fill="white">Eth0/2</text>
</g>
<!-- R4 -->
<g id="node5" class="node"><title>R4</title>
<polygon fill="#006699" stroke="#006699" points="558.137,-347 481.137,-347 481.137,-274 558.137,-274 558.137,-347"/>
<text text-anchor="middle" x="519.637" y="-306.8" font-family="Helvetica,sans-Serif" font-size="14.00" fill="white">R4</text>
</g>
<!-- SW2 -->
<g id="node6" class="node"><title>SW2</title>
<polygon fill="#006699" stroke="#006699" points="749.637,-347 657.637,-347 657.637,-274 749.637,-274 749.637,-347"/>
<text text-anchor="middle" x="703.637" y="-306.8" font-family="Helvetica,sans-Serif" font-size="14.00" fill="white">SW2</text>
</g>
<!-- R3&#45;&#45;R5 -->
<g id="edge10" class="edge"><title>R3&#45;&#45;R5</title>
<path fill="none" stroke="green" stroke-dasharray="5,2" d="M419.855,-210.267C409.387,-218.511 399.378,-228.841 393.637,-241 388.911,-251.011 388.015,-262.789 388.789,-273.728"/>
<text text-anchor="middle" x="443.637" y="-244.8" font-family="Courier,monospace" font-size="14.00" fill="white"> &#160;&#160;&#160;&#160;&#160;&#160;&#160;&#160;&#160;&#160;&#160;</text>
<text text-anchor="middle" x="363.789" y="-262.528" font-family="Courier,monospace" font-size="14.00" fill="white">Eth0/0</text>
<text text-anchor="middle" x="394.855" y="-199.067" font-family="Courier,monospace" font-size="14.00" fill="white">Eth0/2</text>
</g>
<!-- R3&#45;&#45;SW1 -->
<g id="edge8" class="edge"><title>R3&#45;&#45;SW1</title>
<path fill="none" stroke="green" stroke-dasharray="5,2" d="M494.578,-149.757C501.054,-139.151 503.989,-127.552 497.637,-117 485.613,-97.0243 463.35,-84.115 442.779,-75.9936"/>
<text text-anchor="middle" x="551.637" y="-120.8" font-family="Courier,monospace" font-size="14.00" fill="white"> &#160;&#160;&#160;&#160;&#160;&#160;&#160;&#160;&#160;&#160;&#160;</text>
<text text-anchor="middle" x="467.779" y="-79.7936" font-family="Courier,monospace" font-size="14.00" fill="white">Eth0/3</text>
<text text-anchor="middle" x="469.578" y="-138.557" font-family="Courier,monospace" font-size="14.00" fill="white">Eth0/0</text>
</g>
<!-- R3&#45;&#45;R4 -->
<g id="edge9" class="edge"><title>R3&#45;&#45;R4</title>
<path fill="none" stroke="green" stroke-dasharray="5,2" d="M486.918,-223.045C490.836,-228.854 494.564,-234.955 497.637,-241 502.845,-251.244 507.151,-262.971 510.531,-273.794"/>
<text text-anchor="middle" x="554.637" y="-244.8" font-family="Courier,monospace" font-size="14.00" fill="white"> &#160;&#160;&#160;&#160;&#160;&#160;&#160;&#160;&#160;&#160;&#160;</text>
<text text-anchor="middle" x="485.531" y="-262.594" font-family="Courier,monospace" font-size="14.00" fill="white">Eth0/0</text>
<text text-anchor="middle" x="461.918" y="-226.845" font-family="Courier,monospace" font-size="14.00" fill="white">Eth0/1</text>
</g>
<!-- R2&#45;&#45;SW1 -->
<g id="edge6" class="edge"><title>R2&#45;&#45;SW1</title>
<path fill="none" stroke="green" stroke-dasharray="5,2" d="M735.106,-149.9C741.37,-138.607 743.824,-126.58 735.637,-117 698.477,-73.5156 526.37,-65.1641 442.638,-63.7061"/>
<text text-anchor="middle" x="790.637" y="-120.8" font-family="Courier,monospace" font-size="14.00" fill="white"> &#160;&#160;&#160;&#160;&#160;&#160;&#160;&#160;&#160;&#160;&#160;</text>
<text text-anchor="middle" x="467.638" y="-52.5061" font-family="Courier,monospace" font-size="14.00" fill="white">Eth0/2</text>
<text text-anchor="middle" x="710.106" y="-138.7" font-family="Courier,monospace" font-size="14.00" fill="white">Eth0/0</text>
</g>
<!-- R2&#45;&#45;SW2 -->
<g id="edge7" class="edge"><title>R2&#45;&#45;SW2</title>
<path fill="none" stroke="green" stroke-dasharray="5,2" d="M703.637,-223.115C703.637,-239.01 703.637,-257.704 703.637,-273.629"/>
<text text-anchor="middle" x="753.637" y="-244.8" font-family="Courier,monospace" font-size="14.00" fill="white"> &#160;&#160;&#160;&#160;&#160;&#160;&#160;&#160;&#160;&#160;&#160;</text>
<text text-anchor="middle" x="674.637" y="-262.429" font-family="Courier,monospace" font-size="14.00" fill="white">Eth0/11</text>
<text text-anchor="middle" x="678.637" y="-226.915" font-family="Courier,monospace" font-size="14.00" fill="white">Eth0/1</text>
</g>
</g>
</svg>
